<?xml version="1.0" standalone="no"?><!DOCTYPE svg PUBLIC "-//W3C//DTD SVG 1.1//EN" "http://www.w3.org/Graphics/SVG/1.1/DTD/svg11.dtd"><svg t="1711979659121" class="icon" viewBox="0 0 1024 1024" version="1.1" xmlns="http://www.w3.org/2000/svg" p-id="7463" xmlns:xlink="http://www.w3.org/1999/xlink" width="200" height="200"><path d="M170.666667 0h682.666666c93.866667 0 170.666667 76.8 170.666667 170.666667v682.666666c0 93.866667-76.8 170.666667-170.666667 170.666667H170.666667c-93.866667 0-170.666667-76.8-170.666667-170.666667V170.666667C0 76.8 76.8 0 170.666667 0z m341.333333 597.333333c51.2 0 85.333333-34.133333 85.333333-85.333333s-34.133333-85.333333-85.333333-85.333333-85.333333 34.133333-85.333333 85.333333 34.133333 85.333333 85.333333 85.333333zM256 597.333333c51.2 0 85.333333-34.133333 85.333333-85.333333s-34.133333-85.333333-85.333333-85.333333-85.333333 34.133333-85.333333 85.333333 34.133333 85.333333 85.333333 85.333333z m512 0c51.2 0 85.333333-34.133333 85.333333-85.333333s-34.133333-85.333333-85.333333-85.333333-85.333333 34.133333-85.333333 85.333333 34.133333 85.333333 85.333333 85.333333z" fill="#2c2c2c" p-id="7464"></path></svg>